<svg xmlns="http://www.w3.org/2000/svg" width="58" height="26" fill="none"><rect width="4.982" height="18.875" x="19.91" y="5.248" fill="#055EFE" rx=".627"/><path fill="#055EFE" d="M8.281.292c.346 0 .626.281.626.627v3.23l.012.28c.058.596.344.787 1.244.787h5.28c.346 0 .626.281.626.627V9.44c0 .346-.28.626-.626.627h-5.28c-1.028 0-1.256.352-1.256 1.118v6.032c0 1.793 1.402 2.478 2.648 2.689.958.162 2.105-.148 2.938-.457.61-.226 1.322.071 1.516.692l.795 2.539c.159.508-.09 1.055-.592 1.233-.938.333-2.497.79-3.982.79-5.099 0-7.974-2.869-8.277-5.986a.624.624 0 0 1-.028-.176v-7.203c-.005-.878-.281-1.271-1.308-1.271H.92a.627.627 0 0 1-.627-.627V5.843c0-.346.28-.627.627-.627h1.927c.807 0 1.028-.28 1.071-.784l.008-.23V.92c0-.346.28-.627.627-.627h3.73ZM33.235.36c.345 0 .626.28.626.626v15.79c0 .984.24 1.947.674 2.34.277.249.604.417.9.528.422.16.727.607.612 1.042l-.919 3.484a.664.664 0 0 1-.74.505c-1.527-.237-5.51-1.239-5.51-5.244V.986c0-.346.281-.626.627-.626h3.73Zm19.812 4.451a.356.356 0 0 1 .649 0l.776 1.72a.357.357 0 0 0 .186.182l1.747.74c.29.123.29.533 0 .656l-1.747.74a.356.356 0 0 0-.186.181l-.776 1.721a.356.356 0 0 1-.65 0l-.775-1.721a.356.356 0 0 0-.186-.181l-1.747-.74a.356.356 0 0 1 0-.656l1.747-.74a.356.356 0 0 0 .186-.181l.776-1.721Z"/><ellipse cx="41.183" cy="7.635" fill="#FB54D7" rx="3.002" ry="2.741"/><path fill="#FB54D7" d="M42.865 13c.346 0 .626.28.627.627v3.239l.001.02c0 1.098.624 2.045 1.53 2.502 1.181.339 3.024.62 4.648-.201a2.802 2.802 0 0 0 1.191-2.3l.002-.035v-3.226c0-.345.28-.625.627-.625h3.734c.346 0 .627.28.627.626v3.95a.632.632 0 0 1-.015.13c-.14 3.499-2.764 6.344-6.129 6.767a15.308 15.308 0 0 1-4.685.066 6.35 6.35 0 0 1-.87-.144c-3.124-.626-5.502-3.363-5.635-6.689a.631.631 0 0 1-.014-.13v-3.95c0-.346.281-.627.627-.627h3.734Z"/></svg>